<?xml version="1.0" encoding="iso-8859-1"?>
<!-- Uploaded to: SVG Repo, www.svgrepo.com, Generator: SVG Repo Mixer Tools -->
<svg version="1.1" id="Layer_1" xmlns="http://www.w3.org/2000/svg" xmlns:xlink="http://www.w3.org/1999/xlink" 
	 viewBox="0 0 512 512" xml:space="preserve">
<rect x="127.733" y="196.142" style="fill:#8CE16E;" width="188.125" height="273.637"/>
<rect x="93.528" y="469.779" style="fill:#C7CFE2;" width="256.534" height="34.205"/>
<path style="fill:#9BF57D;" d="M315.858,196.142H127.733c-9.446,0-17.102-7.656-17.102-17.102V25.119
	c0-9.446,7.656-17.102,17.102-17.102h188.125c9.446,0,17.102,7.656,17.102,17.102V179.04
	C332.96,188.485,325.304,196.142,315.858,196.142z"/>
<path style="fill:#FFF082;" d="M290.205,161.937H153.386c-4.722,0-8.551-3.829-8.551-8.551V50.772c0-4.722,3.829-8.551,8.551-8.551
	h136.818c4.722,0,8.551,3.829,8.551,8.551v102.614C298.756,158.109,294.927,161.937,290.205,161.937z"/>
<path style="fill:#FFDC64;" d="M298.756,108.089c-16.991-24.28-45.073-40.214-76.96-40.214s-59.969,15.934-76.96,40.214v45.298
	c0,4.722,3.829,8.551,8.551,8.551h136.818c4.722,0,8.551-3.829,8.551-8.551V108.089z"/>
<path style="fill:#FFF082;" d="M264.176,333.99c2.346,24.004-13.628,47.421-37.607,50.019
	c-25.752,2.789-47.529-17.311-47.529-42.497c0-31.408,29.534-75.583,39.51-89.607c1.643-2.311,5.001-2.408,6.769-0.192
	C234.866,263.675,260.752,298.977,264.176,333.99z"/>
<path style="fill:#FFDC64;" d="M221.795,250.134c-1.234,0.063-2.446,0.643-3.247,1.77c-9.975,14.025-39.508,58.199-39.508,89.607
	c0,23.613,19.142,42.755,42.756,42.756V250.134z"/>
<path style="fill:#FFC850;" d="M221.795,136.284c-14.168,0-25.653,11.485-25.653,25.653h51.307
	C247.449,147.769,235.964,136.284,221.795,136.284z"/>
<path d="M418.044,122.353l-44.466-59.288c-2.657-3.542-7.682-4.26-11.223-1.603c-3.541,2.656-4.26,7.682-1.603,11.223l15.507,20.677
	c-0.001,0.056-0.009,0.11-0.009,0.167v42.756c0,18.566,15.105,33.67,33.67,33.67h0.534v239.967c0,9.725-7.912,17.637-17.637,17.637
	c-9.725,0-17.637-7.912-17.637-17.637V256c0-18.566-15.105-33.67-33.67-33.67h-17.637v-19.49c9.93-3.354,17.102-12.752,17.102-23.8
	V25.119C340.977,11.268,329.709,0,315.858,0H127.733c-13.851,0-25.119,11.268-25.119,25.119V179.04
	c0,11.048,7.172,20.446,17.102,23.8v258.922H93.528c-4.427,0-8.017,3.589-8.017,8.017v34.205c0,4.427,3.589,8.017,8.017,8.017
	h256.534c4.427,0,8.017-3.589,8.017-8.017v-34.205c0-4.427-3.589-8.017-8.017-8.017h-26.188V238.363h17.637
	c9.725,0,17.637,7.912,17.637,17.637v153.921c0,18.566,15.105,33.67,33.67,33.67c18.566,0,33.67-15.105,33.67-33.67V147.686
	C426.489,138.61,423.489,129.613,418.044,122.353z M118.647,25.119c0-5.01,4.076-9.086,9.086-9.086h188.125
	c5.01,0,9.086,4.076,9.086,9.086V179.04c0,5.01-4.076,9.086-9.086,9.086H127.733c-5.01,0-9.086-4.076-9.086-9.086V25.119z
	 M342.046,495.967H101.545v-18.171h240.501V495.967z M135.749,461.762V204.159h172.092v257.603H135.749z M409.921,153.921
	c-9.725,0-17.637-7.912-17.637-17.637v-21.556l12.934,17.244c3.378,4.503,5.238,10.084,5.238,15.713v6.236H409.921z"/>
<path d="M221.512,239.438c-2.405,0.084-4.644,1.245-6.1,3.162c-0.45,0.592-11.136,14.711-21.963,33.746
	c-14.881,26.161-22.426,48.086-22.426,65.166c0,25.268,18.556,46.278,42.756,50.133v26.827c0,4.427,3.589,8.017,8.017,8.017
	s8.017-3.589,8.017-8.017v-26.827c24.2-3.855,42.756-24.866,42.756-50.133c0-47.818-42.92-97.269-44.747-99.35
	C226.232,240.351,223.905,239.346,221.512,239.438z M229.812,375.307v-50.898c0-4.427-3.589-8.017-8.017-8.017
	s-8.017,3.589-8.017,8.017v50.898c-15.301-3.63-26.722-17.399-26.722-33.795c0-14.029,6.996-33.763,20.233-57.07
	c5.424-9.549,10.895-17.913,14.877-23.712c11.476,15.13,34.368,49.265,34.368,80.783
	C256.534,357.907,245.113,371.677,229.812,375.307z"/>
<path d="M136.818,161.937c0,4.427,3.589,8.017,8.017,8.017h153.921c4.427,0,8.017-3.589,8.017-8.017V42.221
	c0-4.427-3.589-8.017-8.017-8.017H144.835c-4.427,0-8.017,3.589-8.017,8.017V161.937z M237.485,153.921h-31.38
	c2.926-5.701,8.853-9.62,15.689-9.62S234.56,148.219,237.485,153.921z M254.494,153.921c-1.558-6.357-4.928-12.006-9.526-16.377
	l17.993-31.487c2.197-3.845,0.862-8.741-2.983-10.938c-3.844-2.197-8.741-0.86-10.938,2.983l-17.983,31.471
	c-2.945-0.843-6.049-1.305-9.261-1.305c-15.804,0-29.091,10.947-32.699,25.653h-36.245v-43.474
	c16.225-21.685,41.81-34.556,68.944-34.556c27.133,0,52.719,12.873,68.944,34.555v43.474H254.494z M290.739,50.238V86.68
	c-18.649-17.057-43.208-26.822-68.944-26.822c-25.737,0-50.295,9.764-68.944,26.823V50.238H290.739z"/>
</svg>